<svg xmlns="http://www.w3.org/2000/svg" width="400" height="57" viewBox="0 0 4000 570" preserveAspectRatio="xMidYMid meet"><path d="M0 285V0h4000v570H0V285z"/><path d="M190 295V100h25c25 0 25 1 25 80v80h290V100h60v179c0 99-3 186-6 195s-17 16-30 16c-24 0-24-2-24-90v-90H240v90c0 89 0 90-25 90h-25V295zm442 15c3-166 5-183 22-196 15-11 56-14 166-14 205 0 195-11 195 213v172l-27 3-28 3V350H691l-3 68c-3 65-4 67-31 70l-28 3 3-181zm328-84c0-49-4-65-16-70-9-3-69-6-134-6-85 0-119 3-122 13-2 6-2 38 0 70l4 57h268v-64zm100 69V100h60v330h331l-3 28-3 27-192 3-193 2V295zm442 185c-36-15-44-54-40-208 3-130 5-145 23-158 29-22 331-16 345 6 11 18 13 320 2 336-18 27-55 34-179 33-70 0-138-4-151-9zm283-190V155l-129-3c-97-2-131 1-138 10-9 15-11 229-2 252 6 14 25 16 138 14l131-3V290zm130 175c-24-23-25-28-25-175 0-202-13-190 210-190h170v50l-162 2-163 3-3 115c-4 175-20 160 168 160h160v60h-165c-163 0-166 0-190-25zm402 18c-4-3-7-91-7-195V100h174c145 0 177 3 190 16 12 12 16 37 16 108 0 104-7 117-60 118-27 1-57 18-31 18 6 0 11 4 11 9s18 28 40 52c48 52 50 69 11 69-22 0-37-11-67-47-21-27-42-49-46-51-5-2-8-10-8-17 0-21-31-30-107-30h-73v73c0 63-2 72-18 72-10 0-22-3-25-7zm321-260l-3-68-115-3c-161-4-160-4-160 67 0 32 3 61 7 64 3 4 67 7 140 7h134l-3-67zm259 260c-4-3-7-38-7-76 0-61-4-75-27-106-15-20-31-37-35-39s-8-10-8-18-4-14-9-14-12-8-15-17c-3-10-22-36-41-57-42-48-43-56-7-56 27 0 52 22 97 85 39 55 70 85 81 78 6-5 29-33 52-63 77-102 76-102 109-98l31 3-55 75c-30 41-59 77-64 78-5 2-9 10-9 18s-4 14-8 14c-22 0-42 62-42 129 0 62-2 71-18 71-10 0-22-3-25-7zm259-1c-3-4-4-91-3-193l2-184 170-3c212-3 208-5 213 107 3 63 0 87-12 106-16 25-18 25-166 25h-150v75c0 73-1 75-24 75-14 0-27-4-30-8zm332-241c7-94 10-92-141-89l-132 3-6 136 276-6 3-44zm222 79V150h-80c-79 0-80 0-80-25v-25h380v25c0 25-1 25-85 25h-85v340h-50V320z" fill="#fcfcfc"/></svg>