<svg xmlns="http://www.w3.org/2000/svg" viewBox="0 0 261.23 456" fill="none" stroke="#FF5E00" stroke-width="6"><path d="M18.16 57.32l87.66-53.36a1.18 1.18 0 0 1 1.75 1.34L66.14 145.22a.15.15 0 0 1-.28 0L17.43 60.08a2.07 2.07 0 0 1 .73-2.76zm239.3-31L67.22 144.83a.52.52 0 0 1-.78-.6L107.92 4.5a2.12 2.12 0 0 1 2.32-1.49l146.6 20.33a1.62 1.62 0 0 1 .63 2.97z"/><path d="M17.3 58.37L3.04 280.72a.45.45 0 0 0 .86.22l62-135.7"/><path d="M4.93 283.9l134.7 49.4 31.9-101.1L3.97 279.6c-1.62 3.18.35 4.05.96 4.3z"/><path d="M66.44 144.23l104.1 90.94 86-205.67a1.22 1.22 0 0 0-1.77-1.51zM3.04 282.17l177.43 170.48a.5.5 0 0 0 .83-.51l-40.46-122.68z"/><path d="M170.54 238.77l10.92 213.12a.46.46 0 0 1-.9.16l-38.58-118.78z"/><path d="M257.98 26l-75.94 426.8a.26.26 0 0 1-.51 0l-11-214z"/></svg>